<?xml version="1.0" encoding="UTF-8"?><svg xmlns="http://www.w3.org/2000/svg" viewBox="0 0 1155 1155"><defs><style>.cls-1{fill:#1f1215;}.cls-2{fill:#ffcc03;}.cls-3{fill:none;}</style></defs><g id="qr"><rect class="cls-2" width="1155" height="1155"/><g><rect x="385" y="70" width="35" height="35"/><rect x="490" y="70" width="35" height="35"/><rect x="525" y="70" width="35" height="35"/><rect x="735" y="70" width="35" height="35"/><rect x="770" y="70" width="35" height="35"/><rect x="350" y="105" width="35" height="35"/><rect x="490" y="105" width="35" height="35"/><rect x="595" y="105" width="35" height="35"/><rect x="665" y="105" width="35" height="35"/><rect x="700" y="105" width="35" height="35"/><rect x="735" y="105" width="35" height="35"/><rect x="385" y="140" width="35" height="35"/><rect x="665" y="140" width="35" height="35"/><rect x="700" y="140" width="35" height="35"/><rect x="490" y="175" width="35" height="35"/><rect x="595" y="175" width="35" height="35"/><rect x="700" y="175" width="35" height="35"/><rect x="770" y="175" width="35" height="35"/><rect x="490" y="210" width="35" height="35"/><rect x="525" y="210" width="35" height="35"/><rect x="560" y="210" width="35" height="35"/><rect x="665" y="210" width="35" height="35"/><rect x="700" y="210" width="35" height="35"/><rect x="350" y="245" width="35" height="35"/><rect x="385" y="245" width="35" height="35"/><rect x="420" y="245" width="35" height="35"/><rect x="455" y="245" width="35" height="35"/><rect x="490" y="245" width="35" height="35"/><rect x="560" y="245" width="35" height="35"/><rect x="630" y="245" width="35" height="35"/><rect x="665" y="245" width="35" height="35"/><rect x="735" y="245" width="35" height="35"/><rect x="350" y="280" width="35" height="35"/><rect x="420" y="280" width="35" height="35"/><rect x="490" y="280" width="35" height="35"/><rect x="560" y="280" width="35" height="35"/><rect x="630" y="280" width="35" height="35"/><rect x="700" y="280" width="35" height="35"/><rect x="770" y="280" width="35" height="35"/><rect x="350" y="315" width="35" height="35"/><rect x="385" y="315" width="35" height="35"/><rect x="420" y="315" width="35" height="35"/><rect x="455" y="315" width="35" height="35"/><rect x="490" y="315" width="35" height="35"/><rect x="595" y="315" width="35" height="35"/><rect x="210" y="350" width="35" height="35"/><rect x="245" y="350" width="35" height="35"/><rect x="280" y="350" width="35" height="35"/><rect x="315" y="350" width="35" height="35"/><rect x="420" y="350" width="35" height="35"/><rect x="455" y="350" width="35" height="35"/><rect x="490" y="350" width="35" height="35"/><rect x="630" y="350" width="35" height="35"/><rect x="735" y="350" width="35" height="35"/><rect x="770" y="350" width="35" height="35"/><rect x="840" y="350" width="35" height="35"/><rect x="875" y="350" width="35" height="35"/><rect x="1015" y="350" width="35" height="35"/><rect x="245" y="385" width="35" height="35"/><rect x="350" y="385" width="35" height="35"/><rect x="385" y="385" width="35" height="35"/><rect x="525" y="385" width="35" height="35"/><rect x="560" y="385" width="35" height="35"/><rect x="595" y="385" width="35" height="35"/><rect x="630" y="385" width="35" height="35"/><rect x="665" y="385" width="35" height="35"/><rect x="700" y="385" width="35" height="35"/><rect x="735" y="385" width="35" height="35"/><rect x="875" y="385" width="35" height="35"/><rect x="1015" y="385" width="35" height="35"/><rect x="1050" y="385" width="35" height="35"/><rect x="70" y="420" width="35" height="35"/><rect x="140" y="420" width="35" height="35"/><rect x="210" y="420" width="35" height="35"/><rect x="245" y="420" width="35" height="35"/><rect x="280" y="420" width="35" height="35"/><rect x="350" y="420" width="35" height="35"/><rect x="385" y="420" width="35" height="35"/><rect x="455" y="420" width="35" height="35"/><rect x="525" y="420" width="35" height="35"/><rect x="595" y="420" width="35" height="35"/><rect x="630" y="420" width="35" height="35"/><rect x="735" y="420" width="35" height="35"/><rect x="805" y="420" width="35" height="35"/><rect x="875" y="420" width="35" height="35"/><rect x="910" y="420" width="35" height="35"/><rect x="980" y="420" width="35" height="35"/><rect x="1050" y="420" width="35" height="35"/><rect x="105" y="455" width="35" height="35"/><rect x="140" y="455" width="35" height="35"/><rect x="175" y="455" width="35" height="35"/><rect x="245" y="455" width="35" height="35"/><rect x="315" y="455" width="35" height="35"/><rect x="385" y="455" width="35" height="35"/><rect x="455" y="455" width="35" height="35"/><rect x="665" y="455" width="35" height="35"/><rect x="700" y="455" width="35" height="35"/><rect x="735" y="455" width="35" height="35"/><rect x="770" y="455" width="35" height="35"/><rect x="805" y="455" width="35" height="35"/><rect x="910" y="455" width="35" height="35"/><rect x="945" y="455" width="35" height="35"/><rect x="1015" y="455" width="35" height="35"/><rect x="1050" y="455" width="35" height="35"/><rect x="140" y="490" width="35" height="35"/><rect x="875" y="490" width="35" height="35"/><rect x="945" y="490" width="35" height="35"/><rect x="1050" y="490" width="35" height="35"/><rect x="105" y="525" width="35" height="35"/><rect x="140" y="525" width="35" height="35"/><rect x="245" y="525" width="35" height="35"/><rect x="910" y="525" width="35" height="35"/><rect x="980" y="525" width="35" height="35"/><rect x="1050" y="525" width="35" height="35"/><rect x="140" y="560" width="35" height="35"/><rect x="210" y="560" width="35" height="35"/><rect x="910" y="560" width="35" height="35"/><rect x="1015" y="560" width="35" height="35"/><rect x="1050" y="560" width="35" height="35"/><rect x="140" y="595" width="35" height="35"/><rect x="175" y="595" width="35" height="35"/><rect x="245" y="595" width="35" height="35"/><rect x="875" y="595" width="35" height="35"/><rect x="945" y="595" width="35" height="35"/><rect x="1050" y="595" width="35" height="35"/><rect x="140" y="630" width="35" height="35"/><rect x="175" y="630" width="35" height="35"/><rect x="210" y="630" width="35" height="35"/><rect x="245" y="630" width="35" height="35"/><rect x="910" y="630" width="35" height="35"/><rect x="70" y="665" width="35" height="35"/><rect x="245" y="665" width="35" height="35"/><rect x="385" y="665" width="35" height="35"/><rect x="420" y="665" width="35" height="35"/><rect x="525" y="665" width="35" height="35"/><rect x="630" y="665" width="35" height="35"/><rect x="700" y="665" width="35" height="35"/><rect x="735" y="665" width="35" height="35"/><rect x="770" y="665" width="35" height="35"/><rect x="805" y="665" width="35" height="35"/><rect x="910" y="665" width="35" height="35"/><rect x="980" y="665" width="35" height="35"/><rect x="1050" y="665" width="35" height="35"/><rect x="245" y="700" width="35" height="35"/><rect x="280" y="700" width="35" height="35"/><rect x="350" y="700" width="35" height="35"/><rect x="385" y="700" width="35" height="35"/><rect x="455" y="700" width="35" height="35"/><rect x="525" y="700" width="35" height="35"/><rect x="560" y="700" width="35" height="35"/><rect x="665" y="700" width="35" height="35"/><rect x="770" y="700" width="35" height="35"/><rect x="910" y="700" width="35" height="35"/><rect x="945" y="700" width="35" height="35"/><rect x="1050" y="700" width="35" height="35"/><rect x="315" y="735" width="35" height="35"/><rect x="350" y="735" width="35" height="35"/><rect x="385" y="735" width="35" height="35"/><rect x="420" y="735" width="35" height="35"/><rect x="560" y="735" width="35" height="35"/><rect x="595" y="735" width="35" height="35"/><rect x="665" y="735" width="35" height="35"/><rect x="910" y="735" width="35" height="35"/><rect x="945" y="735" width="35" height="35"/><rect x="1050" y="735" width="35" height="35"/><rect x="70" y="770" width="35" height="35"/><rect x="105" y="770" width="35" height="35"/><rect x="140" y="770" width="35" height="35"/><rect x="175" y="770" width="35" height="35"/><rect x="210" y="770" width="35" height="35"/><rect x="245" y="770" width="35" height="35"/><rect x="280" y="770" width="35" height="35"/><rect x="420" y="770" width="35" height="35"/><rect x="525" y="770" width="35" height="35"/><rect x="595" y="770" width="35" height="35"/><rect x="665" y="770" width="35" height="35"/><rect x="735" y="770" width="35" height="35"/><rect x="770" y="770" width="35" height="35"/><rect x="805" y="770" width="35" height="35"/><rect x="840" y="770" width="35" height="35"/><rect x="875" y="770" width="35" height="35"/><rect x="910" y="770" width="35" height="35"/><rect x="350" y="805" width="35" height="35"/><rect x="420" y="805" width="35" height="35"/><rect x="490" y="805" width="35" height="35"/><rect x="525" y="805" width="35" height="35"/><rect x="700" y="805" width="35" height="35"/><rect x="735" y="805" width="35" height="35"/><rect x="770" y="805" width="35" height="35"/><rect x="910" y="805" width="35" height="35"/><rect x="980" y="805" width="35" height="35"/><rect x="1050" y="805" width="35" height="35"/><rect x="350" y="840" width="35" height="35"/><rect x="385" y="840" width="35" height="35"/><rect x="420" y="840" width="35" height="35"/><rect x="455" y="840" width="35" height="35"/><rect x="490" y="840" width="35" height="35"/><rect x="595" y="840" width="35" height="35"/><rect x="630" y="840" width="35" height="35"/><rect x="735" y="840" width="35" height="35"/><rect x="770" y="840" width="35" height="35"/><rect x="840" y="840" width="35" height="35"/><rect x="910" y="840" width="35" height="35"/><rect x="1050" y="840" width="35" height="35"/><rect x="350" y="875" width="35" height="35"/><rect x="385" y="875" width="35" height="35"/><rect x="455" y="875" width="35" height="35"/><rect x="490" y="875" width="35" height="35"/><rect x="560" y="875" width="35" height="35"/><rect x="630" y="875" width="35" height="35"/><rect x="665" y="875" width="35" height="35"/><rect x="735" y="875" width="35" height="35"/><rect x="770" y="875" width="35" height="35"/><rect x="910" y="875" width="35" height="35"/><rect x="945" y="875" width="35" height="35"/><rect x="1015" y="875" width="35" height="35"/><rect x="1050" y="875" width="35" height="35"/><rect x="350" y="910" width="35" height="35"/><rect x="420" y="910" width="35" height="35"/><rect x="665" y="910" width="35" height="35"/><rect x="735" y="910" width="35" height="35"/><rect x="770" y="910" width="35" height="35"/><rect x="805" y="910" width="35" height="35"/><rect x="840" y="910" width="35" height="35"/><rect x="875" y="910" width="35" height="35"/><rect x="910" y="910" width="35" height="35"/><rect x="1015" y="910" width="35" height="35"/><rect x="385" y="945" width="35" height="35"/><rect x="455" y="945" width="35" height="35"/><rect x="490" y="945" width="35" height="35"/><rect x="525" y="945" width="35" height="35"/><rect x="630" y="945" width="35" height="35"/><rect x="665" y="945" width="35" height="35"/><rect x="875" y="945" width="35" height="35"/><rect x="945" y="945" width="35" height="35"/><rect x="980" y="945" width="35" height="35"/><rect x="1015" y="945" width="35" height="35"/><rect x="385" y="980" width="35" height="35"/><rect x="420" y="980" width="35" height="35"/><rect x="455" y="980" width="35" height="35"/><rect x="490" y="980" width="35" height="35"/><rect x="525" y="980" width="35" height="35"/><rect x="595" y="980" width="35" height="35"/><rect x="735" y="980" width="35" height="35"/><rect x="770" y="980" width="35" height="35"/><rect x="805" y="980" width="35" height="35"/><rect x="945" y="980" width="35" height="35"/><rect x="980" y="980" width="35" height="35"/><rect x="1015" y="980" width="35" height="35"/><rect x="1050" y="980" width="35" height="35"/><rect x="385" y="1015" width="35" height="35"/><rect x="420" y="1015" width="35" height="35"/><rect x="595" y="1015" width="35" height="35"/><rect x="630" y="1015" width="35" height="35"/><rect x="665" y="1015" width="35" height="35"/><rect x="700" y="1015" width="35" height="35"/><rect x="875" y="1015" width="35" height="35"/><rect x="1015" y="1015" width="35" height="35"/><rect x="1050" y="1015" width="35" height="35"/><rect x="630" y="1050" width="35" height="35"/><rect x="665" y="1050" width="35" height="35"/><rect x="700" y="1050" width="35" height="35"/><rect x="840" y="1050" width="35" height="35"/><rect x="910" y="1050" width="35" height="35"/><rect x="945" y="1050" width="35" height="35"/><rect x="1015" y="1050" width="35" height="35"/><g><path class="cls-3" d="m152.76,106.75h125.49v171.5H106.76l.04-124.59c0-25.87,20.62-46.91,45.96-46.91Z"/><path d="m315,70v245H70l.05-161.35c0-46.11,37.09-83.65,82.71-83.65h162.24Zm-36.75,36.75h-125.49c-25.34,0-45.96,21.04-45.96,46.91l-.04,124.59h171.49V106.75Z"/></g><g><path class="cls-3" d="m1002.24,106.75h-125.49v171.5h171.49l-.04-124.59c0-25.87-20.62-46.91-45.96-46.91Z"/><path d="m840,70v245h245l-.05-161.35c0-46.11-37.09-83.65-82.71-83.65h-162.24Zm36.75,36.75h125.49c25.34,0,45.96,21.04,45.96,46.91l.04,124.59h-171.49V106.75Z"/></g><g><path class="cls-3" d="m152.76,1048.25h125.49v-171.5H106.76l.04,124.59c0,25.87,20.62,46.91,45.96,46.91Z"/><path d="m315,1085v-245H70l.05,161.35c0,46.11,37.09,83.65,82.71,83.65h162.24Zm-36.75-36.75h-125.49c-25.34,0-45.96-21.04-45.96-46.91l-.04-124.59h171.49v171.5Z"/></g><path d="m245.06,140.02v104.98h-105l.03-75.99c0-15.99,12.79-29.01,28.49-29.01h47.8c4.92,0,12.08,0,18.03.02h10.64Z"/><path d="m909.94,140.02v104.98h105l-.03-75.99c0-15.99-12.79-29.01-28.49-29.01h-47.8c-4.92,0-12.08,0-18.03.02h-10.64Z"/><path d="m245.06,1014.98v-104.98h-105l.03,75.99c0,15.99,12.79,29.01,28.49,29.01h47.8c4.92,0,12.08,0,18.03-.02h10.64Z"/></g></g><g id="logo"><polygon class="cls-1" points="759.3 555.82 759.52 554.81 779.17 554.81 783.38 535.02 721.19 535.02 716.98 554.81 736.75 554.81 736.54 555.82 736.62 555.82 723.26 619.03 746.12 619.07 736.26 654.98 769.04 595.98 750.74 595.98 759.29 555.82 759.3 555.82"/><g><path class="cls-1" d="m363.63,535.02h-30.88l-17.75,83.96h22.67l5.77-27.42h7.46l6.66,27.42h24.2l-8.09-30.19c9.13-3.65,14.32-11.29,17.18-25.07,2.26-10.71,1.67-17.46-1.93-21.9-4.58-5.64-13.42-6.8-25.3-6.8Zm-12.42,19.8h9.08c2.71,0,6.42.14,7.4,1.35.88,1.1.35,4.2-.21,6.8-1.54,7.33-2.71,8.9-11.63,8.9h-8.22l3.57-17.06Z"/><polygon class="cls-1" points="388.62 618.98 443.04 618.98 447.11 599.18 415.39 599.18 418.27 585.79 443.36 585.79 447.57 565.99 422.48 565.99 424.82 554.81 456.57 554.81 460.78 535.02 406.37 535.02 388.62 618.98"/><polygon class="cls-1" points="491.23 586.29 488.96 535.02 465.37 535.02 473.9 619.31 494.99 619.31 540.17 535.02 515.19 535.02 491.23 586.29"/><path class="cls-1" d="m577.25,586.49c-2.18,9.98-5.7,13.69-12.96,13.69h-.89c-2.99,0-4.99-.67-6.09-2.04-1.51-1.88-1.7-5.5-.54-10.78l11.07-52.35h-22.66l-10.89,51.37c-2.65,12.46-1.85,20.78,2.52,26.17,4.16,5.14,11.55,7.53,23.26,7.53h.89c22.97,0,33.87-9.21,38.88-32.84l11.08-52.23h-22.78l-10.89,51.47Z"/><polygon class="cls-1" points="602.56 618.98 656.98 618.98 661.05 599.18 629.33 599.18 632.21 585.79 657.3 585.79 661.51 565.99 636.42 565.99 638.77 554.81 670.51 554.81 674.72 535.02 620.31 535.02 602.56 618.98"/><polygon class="cls-1" points="704.37 535.02 681.7 535.02 663.95 618.98 717.27 618.98 721.34 599.18 690.72 599.18 704.37 535.02"/><polygon class="cls-1" points="794.49 605.33 794.49 605.32 794.49 605.32 804.58 585.53 804.58 585.53 812.49 569.91 813.73 585.51 815.82 610.38 815.8 610.38 816.5 618.98 840 618.98 828.32 535.02 809.43 535.02 762.71 618.98 787.61 618.98 793.49 607.3 793.48 607.3 794.49 605.33"/></g></g></svg>